<svg width="1180" height="16" viewBox="0 0 1180 16" fill="none" xmlns="http://www.w3.org/2000/svg">
<line y1="7.5" x2="412.5" y2="7.5" stroke="#EAE3D9"/>
<path d="M440.016 13H438.031V3.5625H432.188V13H430.203V1.79688H440.016V13ZM449.195 9.89844H446.719V13H444.734V1.79688H449.195C452.289 1.79688 453.836 3.14583 453.836 5.84375C453.836 8.54688 452.289 9.89844 449.195 9.89844ZM451.102 7.60156C451.539 7.20052 451.758 6.61458 451.758 5.84375C451.758 5.07292 451.539 4.48958 451.102 4.09375C450.659 3.69271 450.023 3.49219 449.195 3.49219H446.719V8.20312H449.195C450.023 8.20312 450.659 8.0026 451.102 7.60156ZM467 13H458.234V1.79688H467V3.49219H460.219V6.42188H466.008V8.08594H460.219V11.3047H467V13ZM472.555 11.5703C471.523 10.513 471.008 9.1224 471.008 7.39844C471.008 5.66406 471.523 4.27083 472.555 3.21875C473.576 2.16667 474.958 1.64062 476.703 1.64062C477.453 1.64062 478.154 1.75 478.805 1.96875C479.44 2.18229 479.969 2.46094 480.391 2.80469C480.797 3.14323 481.151 3.52604 481.453 3.95312C481.99 4.72396 482.258 5.48438 482.258 6.23438H480.18C480.195 6.07812 480.104 5.79948 479.906 5.39844C479.714 4.9974 479.448 4.63281 479.109 4.30469C478.844 4.04948 478.497 3.84115 478.07 3.67969C477.648 3.51302 477.193 3.42969 476.703 3.42969C475.594 3.42969 474.714 3.80208 474.062 4.54688C473.411 5.30208 473.086 6.2526 473.086 7.39844C473.086 8.54948 473.411 9.4974 474.062 10.2422C474.708 10.9922 475.589 11.3672 476.703 11.3672C477.193 11.3672 477.648 11.2865 478.07 11.125C478.497 10.9583 478.844 10.7474 479.109 10.4922C479.359 10.2422 479.568 9.98438 479.734 9.71875C480.031 9.22917 480.18 8.84635 480.18 8.57031H482.258C482.258 9.32031 481.99 10.0781 481.453 10.8438C481.151 11.2708 480.797 11.6536 480.391 11.9922C479.969 12.3411 479.443 12.6198 478.812 12.8281C478.167 13.0469 477.464 13.1562 476.703 13.1562C474.964 13.1562 473.581 12.6276 472.555 11.5703ZM489.047 3.5625H485.133V1.79688H494.953V3.5625H491.031V13H489.047V3.5625ZM506.695 3.85156H506.578L501.648 13H498.547V1.79688H500.531V10.9531H500.641L505.57 1.79688H508.672V13H506.695V3.85156ZM512.031 13L516.945 7.33594L512.352 1.79688H514.734L519.148 7.21094V1.79688H521.133V7.21094L525.555 1.79688H527.938L523.344 7.33594L528.258 13H525.852L521.133 7.47656V13H519.148V7.47656L514.43 13H512.031ZM541.594 13H539.609V8.05469H533.594V13H531.609V1.79688H533.594V6.29688H539.609V1.79688H541.594V13ZM555.844 3.21875C556.87 4.27604 557.383 5.66927 557.383 7.39844C557.383 9.1224 556.87 10.513 555.844 11.5703C554.812 12.6276 553.427 13.1562 551.688 13.1562C549.948 13.1562 548.565 12.6276 547.539 11.5703C546.508 10.513 545.992 9.1224 545.992 7.39844C545.992 5.66406 546.508 4.27083 547.539 3.21875C548.56 2.16667 549.943 1.64062 551.688 1.64062C553.427 1.64062 554.812 2.16667 555.844 3.21875ZM554.336 10.2422C554.982 9.5026 555.305 8.55469 555.305 7.39844C555.305 6.24219 554.982 5.29167 554.336 4.54688C553.685 3.80208 552.802 3.42969 551.688 3.42969C550.573 3.42969 549.69 3.80208 549.039 4.54688C548.393 5.29167 548.07 6.24219 548.07 7.39844C548.07 8.55469 548.393 9.5026 549.039 10.2422C549.69 10.9922 550.573 11.3672 551.688 11.3672C552.802 11.3672 553.685 10.9922 554.336 10.2422ZM570.547 13H561.781V1.79688H570.547V3.49219H563.766V6.42188H569.555V8.08594H563.766V11.3047H570.547V13ZM585.18 9.89844H582.703V13H580.719V1.79688H585.18C588.273 1.79688 589.82 3.14583 589.82 5.84375C589.82 8.54688 588.273 9.89844 585.18 9.89844ZM587.086 7.60156C587.523 7.20052 587.742 6.61458 587.742 5.84375C587.742 5.07292 587.523 4.48958 587.086 4.09375C586.643 3.69271 586.008 3.49219 585.18 3.49219H582.703V8.20312H585.18C586.008 8.20312 586.643 8.0026 587.086 7.60156ZM596.359 1.79688H598.938L603.477 13H601.398L600.5 10.7734H594.789L593.891 13H591.812L596.359 1.79688ZM595.492 9.04688H599.797L597.688 3.71875H597.609L595.492 9.04688ZM607.664 11.5703C606.633 10.513 606.117 9.1224 606.117 7.39844C606.117 5.66406 606.633 4.27083 607.664 3.21875C608.685 2.16667 610.068 1.64062 611.812 1.64062C612.562 1.64062 613.263 1.75 613.914 1.96875C614.549 2.18229 615.078 2.46094 615.5 2.80469C615.906 3.14323 616.26 3.52604 616.562 3.95312C617.099 4.72396 617.367 5.48438 617.367 6.23438H615.289C615.305 6.07812 615.214 5.79948 615.016 5.39844C614.823 4.9974 614.557 4.63281 614.219 4.30469C613.953 4.04948 613.607 3.84115 613.18 3.67969C612.758 3.51302 612.302 3.42969 611.812 3.42969C610.703 3.42969 609.823 3.80208 609.172 4.54688C608.521 5.30208 608.195 6.2526 608.195 7.39844C608.195 8.54948 608.521 9.4974 609.172 10.2422C609.818 10.9922 610.698 11.3672 611.812 11.3672C612.302 11.3672 612.758 11.2865 613.18 11.125C613.607 10.9583 613.953 10.7474 614.219 10.4922C614.469 10.2422 614.677 9.98438 614.844 9.71875C615.141 9.22917 615.289 8.84635 615.289 8.57031H617.367C617.367 9.32031 617.099 10.0781 616.562 10.8438C616.26 11.2708 615.906 11.6536 615.5 11.9922C615.078 12.3411 614.552 12.6198 613.922 12.8281C613.276 13.0469 612.573 13.1562 611.812 13.1562C610.073 13.1562 608.69 12.6276 607.664 11.5703ZM631.5 13H629.516V3.5625H623.672V13H621.688V1.79688H631.5V13ZM645.75 3.21875C646.776 4.27604 647.289 5.66927 647.289 7.39844C647.289 9.1224 646.776 10.513 645.75 11.5703C644.719 12.6276 643.333 13.1562 641.594 13.1562C639.854 13.1562 638.471 12.6276 637.445 11.5703C636.414 10.513 635.898 9.1224 635.898 7.39844C635.898 5.66406 636.414 4.27083 637.445 3.21875C638.466 2.16667 639.849 1.64062 641.594 1.64062C643.333 1.64062 644.719 2.16667 645.75 3.21875ZM644.242 10.2422C644.888 9.5026 645.211 8.55469 645.211 7.39844C645.211 6.24219 644.888 5.29167 644.242 4.54688C643.591 3.80208 642.708 3.42969 641.594 3.42969C640.479 3.42969 639.596 3.80208 638.945 4.54688C638.299 5.29167 637.977 6.24219 637.977 7.39844C637.977 8.55469 638.299 9.5026 638.945 10.2422C639.596 10.9922 640.479 11.3672 641.594 11.3672C642.708 11.3672 643.591 10.9922 644.242 10.2422ZM650.195 13.0625L650.078 13.0312V11.1797C650.255 11.2214 650.422 11.2422 650.578 11.2422C651.068 11.2422 651.411 11.0703 651.609 10.7266C651.812 10.3776 651.964 9.80729 652.062 9.01562L652.992 1.79688H660.867V13H658.883V3.5625H654.797L654.094 9.01562C653.896 10.4844 653.586 11.5391 653.164 12.1797C652.732 12.8307 652.029 13.1562 651.055 13.1562C650.742 13.1562 650.456 13.125 650.195 13.0625ZM675.109 3.21875C676.135 4.27604 676.648 5.66927 676.648 7.39844C676.648 9.1224 676.135 10.513 675.109 11.5703C674.078 12.6276 672.693 13.1562 670.953 13.1562C669.214 13.1562 667.831 12.6276 666.805 11.5703C665.773 10.513 665.258 9.1224 665.258 7.39844C665.258 5.66406 665.773 4.27083 666.805 3.21875C667.826 2.16667 669.208 1.64062 670.953 1.64062C672.693 1.64062 674.078 2.16667 675.109 3.21875ZM673.602 10.2422C674.247 9.5026 674.57 8.55469 674.57 7.39844C674.57 6.24219 674.247 5.29167 673.602 4.54688C672.951 3.80208 672.068 3.42969 670.953 3.42969C669.839 3.42969 668.956 3.80208 668.305 4.54688C667.659 5.29167 667.336 6.24219 667.336 7.39844C667.336 8.55469 667.659 9.5026 668.305 10.2422C668.956 10.9922 669.839 11.3672 670.953 11.3672C672.068 11.3672 672.951 10.9922 673.602 10.2422ZM679.203 13L684.117 7.33594L679.523 1.79688H681.906L686.32 7.21094V1.79688H688.305V7.21094L692.727 1.79688H695.109L690.516 7.33594L695.43 13H693.023L688.305 7.47656V13H686.32V7.47656L681.602 13H679.203ZM707.547 13H698.781V1.79688H707.547V3.49219H700.766V6.42188H706.555V8.08594H700.766V11.3047H707.547V13ZM721.859 13H719.875V8.05469H713.859V13H711.875V1.79688H713.859V6.29688H719.875V1.79688H721.859V13ZM734.727 3.85156H734.609L729.68 13H726.578V1.79688H728.562V10.9531H728.672L733.602 1.79688H736.703V13H734.727V3.85156ZM750.188 13H741.422V1.79688H750.188V3.49219H743.406V6.42188H749.195V8.08594H743.406V11.3047H750.188V13Z" fill="#1A1A1A"/>
<line x1="767.5" y1="7.5" x2="1180" y2="7.5" stroke="#EAE3D9"/>
</svg>
